<?xml version="1.0" encoding="iso-8859-1"?>
<!-- Generator: Adobe Illustrator 19.0.0, SVG Export Plug-In . SVG Version: 6.00 Build 0)  -->
<svg version="1.1" id="Layer_1" xmlns="http://www.w3.org/2000/svg" xmlns:xlink="http://www.w3.org/1999/xlink" x="0px" y="0px"
	 viewBox="0 0 297.001 297.001" style="enable-background:new 0 0 297.001 297.001;" xml:space="preserve">
<g>
	<g>
		<g>
			<path d="M148.494,105.824c-23.529,0-42.671,19.142-42.671,42.671c0,23.529,19.142,42.671,42.671,42.671
				s42.671-19.142,42.671-42.671C191.165,124.966,172.022,105.824,148.494,105.824z M148.494,171.099
				c-12.464,0-22.604-10.14-22.604-22.604c0-12.464,10.14-22.604,22.604-22.604s22.604,10.14,22.604,22.604
				C171.098,160.958,160.957,171.099,148.494,171.099z"/>
			<path d="M259.09,117.662c-1.866,1.867-2.94,4.455-2.94,7.094s1.074,5.227,2.94,7.094c1.876,1.876,4.455,2.939,7.094,2.939
				c2.639,0,5.227-1.063,7.094-2.939c1.875-1.867,2.94-4.455,2.94-7.094c0-2.639-1.064-5.218-2.94-7.094
				c-1.867-1.866-4.446-2.94-7.094-2.94C263.545,114.722,260.956,115.796,259.09,117.662z"/>
			<path d="M171.571,257.86c-2.639,0-5.227,1.074-7.094,2.94c-1.866,1.867-2.939,4.455-2.939,7.094c0,2.639,1.074,5.227,2.939,7.094
				c1.876,1.876,4.455,2.94,7.094,2.94c2.639,0,5.227-1.063,7.094-2.94c1.875-1.867,2.94-4.455,2.94-7.094
				c0-2.639-1.064-5.218-2.94-7.094C176.798,258.934,174.219,257.86,171.571,257.86z"/>
			<path d="M211.074,85.915c-14.385-14.385-29.455-27.408-44.703-38.73c12.28-7.492,24.454-13.651,36.222-18.256
				c30.052-11.758,53.97-11.818,65.627-0.161c11.867,11.867,11.605,36.3-0.718,67.035c-2.063,5.143,0.435,10.985,5.578,13.047
				c5.145,2.063,10.986-0.433,13.047-5.578c15.684-39.114,14.363-70.613-3.716-88.694c-17.812-17.811-48.755-19.354-87.13-4.337
				c-15.208,5.951-30.988,14.253-46.786,24.508c-15.798-10.255-31.578-18.557-46.787-24.508
				C63.336-4.773,32.392-3.234,14.579,14.579c-17.813,17.812-19.353,48.756-4.337,87.129c5.951,15.209,14.253,30.989,24.508,46.786
				c-10.256,15.798-18.558,31.578-24.509,46.787c-15.016,38.374-13.476,69.316,4.337,87.13c9.704,9.704,23.3,14.577,39.877,14.577
				c13.851,0,29.785-3.405,47.253-10.24c35.692-13.967,74.533-40.842,109.365-75.674c14.345-14.345,27.322-29.338,38.724-44.714
				c7.495,12.284,13.657,24.462,18.263,36.234c11.759,30.051,11.818,53.971,0.161,65.627c-11.865,11.866-36.299,11.604-67.035-0.719
				c-5.144-2.061-10.984,0.437-13.047,5.579c-2.062,5.144,0.436,10.985,5.579,13.047c18.101,7.257,34.566,10.873,48.83,10.872
				c16.559-0.001,30.151-4.877,39.864-14.59c17.812-17.813,19.352-48.757,4.337-87.13
				C272.78,159.588,245.905,120.747,211.074,85.915z M28.929,94.395c-11.759-30.05-11.818-53.97-0.161-65.626
				c11.655-11.657,35.577-11.598,65.626,0.16c11.768,4.605,23.943,10.764,36.223,18.256C115.369,58.507,100.3,71.531,85.915,85.916
				c-14.385,14.385-27.408,29.454-38.73,44.702C39.693,118.338,33.534,106.163,28.929,94.395z M94.395,268.06
				c-30.051,11.758-53.97,11.818-65.627,0.161c-11.657-11.656-11.598-35.577,0.161-65.627c4.605-11.768,10.764-23.943,18.256-36.223
				c11.322,15.249,24.345,30.318,38.731,44.704c14.344,14.344,29.338,27.321,44.713,38.723
				C118.344,257.292,106.166,263.454,94.395,268.06z M196.883,196.884c-15.578,15.578-31.935,29.441-48.36,41.103
				c-16.657-11.807-32.92-25.605-48.417-41.103c-15.587-15.587-29.458-31.954-41.124-48.39
				c11.666-16.435,25.536-32.802,41.123-48.388c15.587-15.587,31.954-29.458,48.39-41.124c16.436,11.666,32.803,25.537,48.39,41.123
				c15.578,15.578,29.441,31.935,41.103,48.361C226.18,165.123,212.382,181.386,196.883,196.884z"/>
		</g>
	</g>
</g>
<g>
</g>
<g>
</g>
<g>
</g>
<g>
</g>
<g>
</g>
<g>
</g>
<g>
</g>
<g>
</g>
<g>
</g>
<g>
</g>
<g>
</g>
<g>
</g>
<g>
</g>
<g>
</g>
<g>
</g>
</svg>
