<?xml version="1.0" encoding="iso-8859-1"?>
<!-- Generator: Adobe Illustrator 19.0.0, SVG Export Plug-In . SVG Version: 6.00 Build 0)  -->
<svg version="1.1" id="Layer_1" xmlns="http://www.w3.org/2000/svg" xmlns:xlink="http://www.w3.org/1999/xlink" x="0px" y="0px"
	 viewBox="0 0 496 496" style="enable-background:new 0 0 496 496;" xml:space="preserve">
<g>
	<g>
		<g>
			<path d="M368,240h-96v16h96c61.76,0,112,50.24,112,112s-50.24,112-112,112s-112-50.24-112-112V128C256,57.424,198.576,0,128,0
				S0,57.424,0,128s57.424,128,128,128h96v-16h-96c-61.76,0-112-50.24-112-112S66.24,16,128,16s112,50.24,112,112v240
				c0,70.576,57.424,128,128,128s128-57.424,128-128S438.576,240,368,240z"/>
			<path d="M128,32c-52.936,0-96,43.064-96,96s43.064,96,96,96c52.936,0,96-43.064,96-96C224,75.064,180.936,32,128,32z
				 M105.152,51.368c-6.352,7.256-13.336,16.52-19.288,27.288c-6.088-3.16-10.264-6.424-12.744-8.712
				C82.104,61.448,93.008,54.992,105.152,51.368z M62.656,82.008c3.488,3.128,8.872,7.24,16.368,11.08
				c-3.304,8.384-5.68,17.4-6.568,26.912H48.408C49.808,105.944,54.904,92.976,62.656,82.008z M48.408,136h24.048
				c0.888,9.512,3.264,18.528,6.568,26.912c-7.504,3.84-12.88,7.952-16.368,11.08C54.904,163.024,49.808,150.056,48.408,136z
				 M73.12,186.056c2.48-2.28,6.656-5.552,12.744-8.712c5.96,10.768,12.936,20.032,19.288,27.288
				C93.008,201.008,82.104,194.544,73.12,186.056z M120,197.16c-6.008-6.528-13.048-15.296-19.048-25.672
				c5.52-1.528,11.84-2.688,19.048-3.192V197.16z M120,152.264c-10.008,0.616-18.648,2.36-26.096,4.672
				C91.296,150.32,89.32,143.32,88.48,136H120V152.264z M120,120H88.48c0.84-7.312,2.832-14.304,5.448-20.928
				c7.44,2.304,16.072,4.048,26.072,4.664V120z M120,87.704c-7.192-0.504-13.504-1.656-19.016-3.184
				C106.976,74.176,114,65.416,120,58.88V87.704z M182.88,69.944c-2.48,2.28-6.656,5.552-12.744,8.712
				c-5.952-10.768-12.936-20.032-19.288-27.288C162.992,54.992,173.896,61.456,182.88,69.944z M136,58.848
				c6.008,6.528,13.048,15.296,19.048,25.672c-5.52,1.52-11.84,2.68-19.048,3.184V58.848z M136,103.736
				c10.008-0.616,18.648-2.36,26.096-4.672c2.608,6.616,4.584,13.616,5.424,20.936H136V103.736z M136,136h31.52
				c-0.84,7.312-2.832,14.304-5.448,20.928c-7.44-2.304-16.072-4.048-26.072-4.664V136z M136,168.296
				c7.192,0.504,13.504,1.656,19.016,3.184C149.024,181.824,142,190.584,136,197.12V168.296z M150.848,204.632
				c6.352-7.256,13.336-16.52,19.288-27.288c6.088,3.16,10.264,6.432,12.744,8.712C173.896,194.552,162.992,201.008,150.848,204.632
				z M193.344,173.992c-3.488-3.128-8.872-7.24-16.368-11.08c3.304-8.384,5.688-17.4,6.568-26.912h24.048
				C206.192,150.056,201.096,163.024,193.344,173.992z M183.544,120c-0.888-9.512-3.264-18.528-6.568-26.912
				c7.504-3.84,12.88-7.952,16.368-11.08c7.744,10.976,12.848,23.936,14.248,37.992H183.544z"/>
			<path d="M376,448v-64h16c35.288,0,64-28.712,64-64v-8h-32c-24.08,0-45.08,13.384-56,33.088C357.08,325.384,336.08,312,312,312
				h-32v8c0,35.288,28.712,64,64,64h16v64H376z M424,328h15.336c-3.824,22.672-23.592,40-47.336,40h-15.336
				C380.488,345.328,400.256,328,424,328z M344,368c-23.744,0-43.512-17.328-47.336-40H312c23.744,0,43.512,17.328,47.336,40H344z"
				/>
			<rect x="272" y="208" width="16" height="16"/>
			<rect x="304" y="208" width="16" height="16"/>
			<rect x="336" y="208" width="16" height="16"/>
			<rect x="208" y="272" width="16" height="16"/>
			<rect x="176" y="272" width="16" height="16"/>
			<rect x="144" y="272" width="16" height="16"/>
		</g>
	</g>
</g>
<g>
</g>
<g>
</g>
<g>
</g>
<g>
</g>
<g>
</g>
<g>
</g>
<g>
</g>
<g>
</g>
<g>
</g>
<g>
</g>
<g>
</g>
<g>
</g>
<g>
</g>
<g>
</g>
<g>
</g>
</svg>
