<?xml version="1.0" encoding="iso-8859-1"?>
<!-- Generator: Adobe Illustrator 17.1.0, SVG Export Plug-In . SVG Version: 6.00 Build 0)  -->
<!DOCTYPE svg PUBLIC "-//W3C//DTD SVG 1.1//EN" "http://www.w3.org/Graphics/SVG/1.1/DTD/svg11.dtd">
<svg version="1.1" id="Capa_1" xmlns="http://www.w3.org/2000/svg" xmlns:xlink="http://www.w3.org/1999/xlink" x="0px" y="0px"
	 viewBox="0 0 446.09 446.09" style="enable-background:new 0 0 446.09 446.09;" xml:space="preserve">
<path d="M111.603,150.004c10.72,6.369,22.735,9.552,34.754,9.552c12.016,0,24.036-3.184,34.753-9.551
	c25.499-15.148,39.327-45.114,37.94-82.214c-1.681-44.887-38.679-66.603-72.342-67.785c-0.233-0.008-0.468-0.009-0.701,0
	c-33.665,1.182-70.662,22.898-72.341,67.784C72.278,104.891,86.105,134.856,111.603,150.004z M146.357,20.008
	c17.007,0.685,34.302,7.783,44.253,22.027c-28.046,12.627-62.891,20.81-96.692,22.692C96.957,35.178,121.955,20.991,146.357,20.008z
	 M198.204,60.543c0.463,2.54,0.755,5.205,0.859,7.995c1.105,29.554-9.162,52.98-28.168,64.271c-15.136,8.992-33.941,8.992-49.077,0
	c-15.381-9.138-25.038-26.224-27.577-48.072C130.401,82.806,167.854,74.077,198.204,60.543z M361.867,321
	c-2.434-4.958-0.388-10.95,4.57-13.383l15.775-7.744c4.958-2.435,10.95-0.387,13.383,4.57c2.434,4.958,0.388,10.949-4.57,13.383
	l-15.775,7.743c-1.417,0.696-2.92,1.026-4.398,1.026C367.156,326.596,363.604,324.54,361.867,321z M214.756,248.57l5.762,31.179
	c1.003,5.431,6.213,9.017,11.651,8.017c5.431-1.003,9.02-6.22,8.016-11.651l-5.762-31.201
	c-8.256-44.568-50.285-64.669-88.301-64.669c-0.023,0-0.042,0-0.066,0c-0.029,0-0.061,0-0.092,0
	c-37.99,0-79.96,20.139-88.209,64.673L34.209,372.326c-0.54,2.921,0.247,5.982,2.147,8.265c1.9,2.283,4.716,3.653,7.687,3.653
	h121.268c5.523,0,10-4.524,10-10.047s-4.477-10.023-10-10.023l-109.25-0.01L77.421,248.58c3.802-20.524,17.715-34.127,34.797-41.516
	l19.687,49.18h-4.788c-5.523,0-10.073,4.569-10.073,10.092v55.99c0,5.523,4.55,9.918,10.073,9.918h38.216
	c5.523,0,9.711-4.395,9.711-9.918v-55.99c0-5.523-4.188-10.092-9.711-10.092h-4.524l19.608-48.984
	C197.29,214.692,210.989,228.231,214.756,248.57z M155.045,312.244h-18v-36h18V312.244z M146.357,238.612l-14.842-37.115
	c4.852-0.806,9.753-1.207,14.573-1.216c4.987,0.01,10.061,0.438,15.078,1.301L146.357,238.612z M412.047,357.783
	c0.001,5.523-4.477,10-9.999,10.001l-17.405,0.001c-5.523,0-10.001-4.476-10.001-9.999s4.477-10,9.999-10.001l17.405-0.001
	C407.569,347.784,412.046,352.26,412.047,357.783z M395.596,411.127c-1.737,3.541-5.29,5.596-8.984,5.596
	c-1.479,0-2.98-0.33-4.398-1.026l-15.775-7.743c-4.958-2.434-7.004-8.426-4.57-13.383c2.433-4.958,8.422-7.007,13.383-4.57
	l15.775,7.744C395.983,400.177,398.029,406.169,395.596,411.127z M336.715,289.3c-2.687-1.868-6.137-2.157-9.208-1.018
	l-69.639,25.963h-48.4c-5.523,0-10.423,4.18-10.423,9.703V436.09c0,5.523,4.477,10,10,10s10-4.477,10-10v-34.846h38.823
	l69.619,26.003c3.069,1.139,6.542,0.797,9.228-1.073c2.688-1.869,4.33-4.841,4.33-8.114V297.509
	C341.045,294.235,339.403,291.169,336.715,289.3z M250.045,381.244h-31v-47h31V381.244z M321.045,403.688l-51-19.023v-53.76
	l51-19.022V403.688z"/>
<g>
</g>
<g>
</g>
<g>
</g>
<g>
</g>
<g>
</g>
<g>
</g>
<g>
</g>
<g>
</g>
<g>
</g>
<g>
</g>
<g>
</g>
<g>
</g>
<g>
</g>
<g>
</g>
<g>
</g>
</svg>
